:SAMPLES-PER-SECOND 30
:FULLY-SPECIFIED
:DEGREES
751
root  -47.8552 38.811 -1.94813 -67.5942 -84.226 59.9203
RightUpLeg  -18.8168 -1.44201 -10.0575
RightLeg  61.8969 2.84431 5.27434
RightFoot  -0.576818 -0.695203 7.32253
RightToes  4.6566e-010 0 -3.6325e-017
Spine  12.6884 -1.04897 -2.35767
Spine1  6.46491 -0.243071 -6.41755
HEad  -17.5003 2.85806 -2.89214
LeftShoulder1  1.45858 -1.02837 -26.0414
LeftArm  -4.4557 -40.5593 -34.0554
LeftForeArm  -18.3326 -36.8795 -9.40926
LeftHand  0.00829251 2.8429 -1.15571
RightShoulder  0.461731 -1.79946 21.0681
RightArm  7.28895 46.0703 45.8063
RightForeArm  -35.7477 32.3693 8.80677
RightHand  -0.32747 10.6113 -2.78357
LeftUpLeg  -12.4179 5.58646 -9.82172
LeftLeg  23.3675 -1.12696 -0.236614
LeftFoot  -1.64625 -0.873642 10.3893
LeftToes  -4.59298e-010 2.08438e-011 -1.27151e-011
752
root  -48.7354 39.0361 -1.85166 -55.5016 -83.9422 48.8706
RightUpLeg  -20.9362 -1.09984 -9.47178
RightLeg  52.5014 2.90964 3.71335
RightFoot  -1.49111 -0.607433 6.93372
RightToes  4.6566e-010 0 -3.6325e-017
Spine  12.7909 -1.56145 -1.43847
Spine1  6.34411 -0.536236 -6.37334
HEad  -17.7824 2.20752 -2.65324
LeftShoulder1  1.62353 -1.65385 -25.2834
LeftArm  -3.50788 -42.6118 -34.3296
LeftForeArm  -19.9923 -35.1627 -8.96838
LeftHand  -0.00311693 2.83725 -0.594526
RightShoulder  0.498989 -1.62967 20.5162
RightArm  6.75513 48.1066 45.178
RightForeArm  -36.2386 30.2999 8.25817
RightHand  -0.277107 10.785 -2.39833
LeftUpLeg  -11.5414 5.61522 -9.49593
LeftLeg  22.5363 -2.19214 -0.782855
LeftFoot  -2.33191 -0.824755 10.6125
LeftToes  -4.59298e-010 2.08438e-011 -1.27151e-011
753
root  -49.5951 39.152 -1.79934 -47.8021 -83.22 41.9052
RightUpLeg  -21.4157 -0.479523 -9.41399
RightLeg  40.5688 3.20427 2.62638
RightFoot  -1.2828 -0.694821 7.78799
RightToes  4.6566e-010 0 -3.6325e-017
Spine  13.4045 -1.99479 -1.40572
Spine1  5.81394 -0.957996 -6.04045
HEad  -17.8689 1.8687 -2.69376
LeftShoulder1  1.74452 -2.10361 -24.9407
LeftArm  -3.27611 -44.563 -34.0524
LeftForeArm  -21.0916 -33.3427 -8.48884
LeftHand  0.00346581 3.15858 -1.00392
RightShoulder  0.500404 -1.62144 20.4633
RightArm  6.85789 50.5894 44.5362
RightForeArm  -36.1261 28.0434 7.66417
RightHand  -0.0940984 10.9175 -1.08976
LeftUpLeg  -10.7142 5.34736 -9.53757
LeftLeg  22.3183 -2.82679 -1.09089
LeftFoot  -3.34394 -0.731729 10.7255
LeftToes  -4.59298e-010 2.08438e-011 -1.27151e-011
754
root  -50.4754 39.2592 -1.75675 -44.7168 -82.461 39.7042
RightUpLeg  -21.0111 0.587964 -9.76699
RightLeg  27.2257 4.07749 2.13739
RightFoot  0.0525772 -0.784688 7.86092
RightToes  4.6566e-010 0 -3.6325e-017
Spine  13.3609 -2.20395 -0.997824
Spine1  5.95575 -0.968256 -6.09576
HEad  -18.2822 1.11478 -2.24934
LeftShoulder1  1.92264 -2.87133 -23.9132
LeftArm  -3.33976 -46.2802 -34.2671
LeftForeArm  -22.2217 -31.7071 -8.08536
LeftHand  -0.00260199 3.58991 -0.709385
RightShoulder  0.551492 -1.38871 19.9505
RightArm  6.22677 52.2314 43.6043
RightForeArm  -38.0842 26.4905 7.33912
RightHand  -0.249754 10.6833 -2.21328
LeftUpLeg  -9.82649 5.47807 -9.80465
LeftLeg  21.7132 -3.5502 -1.36804
LeftFoot  -4.30333 -0.657796 11.0853
LeftToes  -4.59298e-010 2.08438e-011 -1.27151e-011
755
root  -51.3672 39.3293 -1.7291 -40.1679 -81.3947 35.7507
RightUpLeg  -19.4995 -1.16439 -9.36399
RightLeg  14.4261 5.90049 1.11773
RightFoot  0.116601 -0.895289 8.91102
RightToes  4.6566e-010 0 -3.6325e-017
Spine  13.4485 -2.59876 -0.770601
Spine1  6.08352 -1.39033 -5.63504
HEad  -18.8424 0.640198 -2.06488
LeftShoulder1  1.98683 -3.16208 -23.5633
LeftArm  -3.51941 -48.0971 -34.5281
LeftForeArm  -22.3576 -29.9181 -7.61567
LeftHand  -0.00505982 3.51917 -1.00021
RightShoulder  0.665241 -0.857928 18.7782
RightArm  5.67479 53.266 43.3777
RightForeArm  -40.0525 25.0373 7.05212
RightHand  -0.351188 10.7927 -2.93061
LeftUpLeg  -8.76138 4.84063 -10.0665
LeftLeg  21.4355 -3.75509 -1.35635
LeftFoot  -5.3346 -0.56456 11.3233
LeftToes  -4.59298e-010 2.08438e-011 -1.27151e-011
756
root  -52.2423 39.3251 -1.72787 -37.136 -80.3752 32.6189
RightUpLeg  -17.6474 -7.8173 -7.07704
RightLeg  5.48156 10.3934 0.266675
RightFoot  0.984533 -1.11507 10.2728
RightToes  4.6566e-010 0 -3.6325e-017
Spine  14.1825 -2.78086 -0.0316527
Spine1  6.25833 -1.55139 -5.4675
HEad  -18.7772 -0.222046 -2.01723
LeftShoulder1  2.1272 -3.74038 -23.0884
LeftArm  -3.13224 -49.8375 -35.152
LeftForeArm  -23.52 -28.0019 -7.17507
LeftHand  -0.0125954 3.63357 -0.831765
RightShoulder  0.642509 -0.927806 18.6129
RightArm  5.32646 54.7471 42.5307
RightForeArm  -41.0414 23.3345 6.7217
RightHand  -0.315073 11.246 -2.61316
LeftUpLeg  -7.38734 4.37435 -10.0987
LeftLeg  21.9742 -4.12215 -1.48002
LeftFoot  -6.9361 -0.384872 11.062
LeftToes  -4.59298e-010 2.08438e-011 -1.27151e-011
757
root  -53.0999 39.245 -1.77921 -33.7103 -79.423 29.8639
RightUpLeg  -17.5009 -8.98986 -6.4241
RightLeg  2.62551 9.48614 0.887235
RightFoot  3.47029 -1.23719 10.0248
RightToes  4.6566e-010 0 -3.6325e-017
Spine  14.0132 -2.7655 0.164209
Spine1  6.64634 -1.85632 -4.14865
HEad  -18.7855 -0.894928 -2.57152
LeftShoulder1  2.25993 -4.19536 -23.0903
LeftArm  -2.91467 -51.0956 -35.6693
LeftForeArm  -24.2231 -26.708 -6.88622
LeftHand  -0.0176672 3.61791 -0.274389
RightShoulder  0.68541 -0.662674 17.6688
RightArm  3.49085 55.4728 41.7997
RightForeArm  -40.3174 22.1559 6.53087
RightHand  -0.266881 11.0647 -2.29764
LeftUpLeg  -7.62093 3.59277 -10.0033
LeftLeg  23.9287 -4.20421 -1.69986
LeftFoot  -8.56103 -0.213263 10.9048
LeftToes  -4.59298e-010 2.08438e-011 -1.27151e-011
758
root  -53.9448 39.1518 -1.84941 -30.611 -79.542 26.8048
RightUpLeg  -18.3113 -7.87521 -4.8774
RightLeg  5.63234 11.1178 1.11252
RightFoot  9.25441 -0.637356 3.78126
RightToes  4.6566e-010 0 -3.6325e-017
Spine  14.7476 -2.84706 2.05696
Spine1  6.69961 -1.70744 -4.43692
HEad  -18.7467 -1.18604 -2.63858
LeftShoulder1  2.2828 -4.41552 -22.5274
LeftArm  -3.34573 -52.0069 -35.8699
LeftForeArm  -24.1757 -25.781 -6.66146
LeftHand  -0.0156669 3.6631 -0.249261
RightShoulder  0.68344 -0.673412 17.7017
RightArm  1.89262 56.4334 41.2282
RightForeArm  -38.8958 21.2874 6.36343
RightHand  -0.234528 10.654 -2.1083
LeftUpLeg  -8.24494 4.26354 -8.93519
LeftLeg  27.7159 -4.70902 -2.33548
LeftFoot  -9.95977 -0.0652977 10.042
LeftToes  -4.59298e-010 2.08438e-011 -1.27151e-011
